<?xml version="1.0" encoding="UTF-8" standalone="no" ?>
<!DOCTYPE svg PUBLIC "-//W3C//DTD SVG 1.1//EN" "http://www.w3.org/Graphics/SVG/1.1/DTD/svg11.dtd">
<svg xmlns="http://www.w3.org/2000/svg" xmlns:xlink="http://www.w3.org/1999/xlink" version="1.1" width="1080" height="1080" viewBox="0 0 1080 1080" xml:space="preserve">
<desc>Created with Fabric.js 5.2.4</desc>
<defs>
</defs>
<g transform="matrix(1 0 0 1 540 540)" id="28a556a7-b193-430a-af55-508fe00c6131"  >
</g>
<g transform="matrix(1 0 0 1 540 540)" id="d912c7da-d98d-47e8-a189-4becec9f0200"  >
<rect style="stroke: none; stroke-width: 1; stroke-dasharray: none; stroke-linecap: butt; stroke-dashoffset: 0; stroke-linejoin: miter; stroke-miterlimit: 4; fill: rgb(255,255,255); fill-rule: nonzero; opacity: 1; visibility: hidden;" vector-effect="non-scaling-stroke"  x="-540" y="-540" rx="0" ry="0" width="1080" height="1080" />
</g>
<g transform="matrix(1 0 0 1 475.86 476.2)"  >
<path style="stroke: none; stroke-width: 1; stroke-dasharray: none; stroke-linecap: butt; stroke-dashoffset: 0; stroke-linejoin: miter; stroke-miterlimit: 4; fill: rgb(0,0,0); fill-rule: evenodd; opacity: 1;" vector-effect="non-scaling-stroke"  transform=" translate(-1135.85, -738.19)" d="M 1274.921875 597.039062 C 1237.148438 557.941406 1190.800781 538.398438 1135.859375 538.398438 C 1080.910156 538.398438 1034.558594 557.941406 996.785156 597.039062 C 959.015625 636.128906 940.128906 683.539062 940.128906 739.273438 C 940.128906 795.007812 959.015625 842.417969 996.785156 881.511719 C 1007.660156 892.761719 1019.238281 902.390625 1031.53125 910.402344 L 1031.53125 1008.734375 C 993.183594 995.179688 958.753906 973.503906 928.242188 943.714844 C 872.246094 889.039062 844.246094 820.890625 844.246094 739.273438 C 844.246094 657.660156 872.246094 589.511719 928.242188 534.828125 C 984.242188 480.148438 1053.441406 452.820312 1135.859375 452.820312 C 1218.269531 452.820312 1287.46875 480.148438 1343.46875 534.828125 C 1399.460938 589.511719 1427.460938 657.660156 1427.460938 739.273438 C 1427.460938 820.890625 1399.460938 889.039062 1343.46875 943.714844 C 1296.578125 989.496094 1240.441406 1016.105469 1175.039062 1023.554688 L 1175.039062 936.5625 C 1213.199219 929.285156 1246.488281 910.9375 1274.921875 881.511719 C 1312.699219 842.417969 1331.578125 795.007812 1331.578125 739.273438 C 1331.578125 683.539062 1312.699219 636.128906 1274.921875 597.039062" stroke-linecap="round" />
</g>
<g transform="matrix(1 0 0 1 646.14 688.25)"  >
<path style="stroke: none; stroke-width: 1; stroke-dasharray: none; stroke-linecap: butt; stroke-dashoffset: 0; stroke-linejoin: miter; stroke-miterlimit: 4; fill: rgb(209,168,28); fill-rule: evenodd; opacity: 1;" vector-effect="non-scaling-stroke"  transform=" translate(-1306.14, -950.24)" d="M 1246.710938 673.289062 C 1263.738281 673.289062 1280.089844 674 1295.769531 675.421875 C 1302.980469 695.089844 1306.578125 716.375 1306.578125 739.273438 C 1306.578125 747.808594 1306.101562 756.089844 1305.128906 764.121094 C 1286.300781 761.152344 1265.78125 759.660156 1243.539062 759.660156 L 1150.039062 759.660156 L 1150.039062 1139.226562 L 1253.839844 1139.226562 C 1320.929688 1139.226562 1372.308594 1123.246094 1407.96875 1091.285156 C 1443.628906 1059.324219 1461.460938 1012.175781 1461.460938 949.839844 C 1461.460938 905.492188 1452.558594 868.914062 1434.78125 840.078125 L 1437.210938 840.078125 C 1447.378906 808.707031 1452.460938 775.105469 1452.460938 739.273438 C 1452.460938 735.195312 1452.398438 731.148438 1452.269531 727.128906 C 1460.519531 732.890625 1468.339844 739.109375 1475.71875 745.792969 C 1529.070312 794.128906 1555.75 861.351562 1555.75 947.460938 C 1555.75 1033.570312 1529.871094 1101.71875 1478.101562 1151.902344 C 1426.328125 1202.089844 1347.078125 1227.183594 1240.371094 1227.183594 L 1056.53125 1227.183594 L 1056.53125 673.289062 L 1246.710938 673.289062" stroke-linecap="round" />
</g>
</svg>