<svg viewBox="769.7042016806723 420 826.890756302521 846.72" xmlns:xlink="http://www.w3.org/1999/xlink" xmlns="http://www.w3.org/2000/svg" style="max-height: 500px" width="826.890756302521" height="846.72">

<path d="M 1274.921875 597.039062 C 1237.148438 557.941406 1190.800781 538.398438 1135.859375 538.398438 C 1080.910156 538.398438 1034.558594 557.941406 996.785156 597.039062 C 959.015625 636.128906 940.128906 683.539062 940.128906 739.273438 C 940.128906 795.007812 959.015625 842.417969 996.785156 881.511719 C 1007.660156 892.761719 1019.238281 902.390625 1031.53125 910.402344 L 1031.53125 1008.734375 C 993.183594 995.179688 958.753906 973.503906 928.242188 943.714844 C 872.246094 889.039062 844.246094 820.890625 844.246094 739.273438 C 844.246094 657.660156 872.246094 589.511719 928.242188 534.828125 C 984.242188 480.148438 1053.441406 452.820312 1135.859375 452.820312 C 1218.269531 452.820312 1287.46875 480.148438 1343.46875 534.828125 C 1399.460938 589.511719 1427.460938 657.660156 1427.460938 739.273438 C 1427.460938 820.890625 1399.460938 889.039062 1343.46875 943.714844 C 1296.578125 989.496094 1240.441406 1016.105469 1175.039062 1023.554688 L 1175.039062 936.5625 C 1213.199219 929.285156 1246.488281 910.9375 1274.921875 881.511719 C 1312.699219 842.417969 1331.578125 795.007812 1331.578125 739.273438 C 1331.578125 683.539062 1312.699219 636.128906 1274.921875 597.039062" fill-opacity="1" fill="rgb(99.609375%, 99.609375%, 99.609375%)" fill-rule="evenodd"/>
<path d="M 1246.710938 673.289062 C 1263.738281 673.289062 1280.089844 674 1295.769531 675.421875 C 1302.980469 695.089844 1306.578125 716.375 1306.578125 739.273438 C 1306.578125 747.808594 1306.101562 756.089844 1305.128906 764.121094 C 1286.300781 761.152344 1265.78125 759.660156 1243.539062 759.660156 L 1150.039062 759.660156 L 1150.039062 1139.226562 L 1253.839844 1139.226562 C 1320.929688 1139.226562 1372.308594 1123.246094 1407.96875 1091.285156 C 1443.628906 1059.324219 1461.460938 1012.175781 1461.460938 949.839844 C 1461.460938 905.492188 1452.558594 868.914062 1434.78125 840.078125 L 1437.210938 840.078125 C 1447.378906 808.707031 1452.460938 775.105469 1452.460938 739.273438 C 1452.460938 735.195312 1452.398438 731.148438 1452.269531 727.128906 C 1460.519531 732.890625 1468.339844 739.109375 1475.71875 745.792969 C 1529.070312 794.128906 1555.75 861.351562 1555.75 947.460938 C 1555.75 1033.570312 1529.871094 1101.71875 1478.101562 1151.902344 C 1426.328125 1202.089844 1347.078125 1227.183594 1240.371094 1227.183594 L 1056.53125 1227.183594 L 1056.53125 673.289062 L 1246.710938 673.289062" fill-opacity="1" fill="rgb(82.421875%, 66.209412%, 11.767578%)" fill-rule="evenodd"/>
<path d="M 1111.878906 1464.511719 C 1106.441406 1458.878906 1099.761719 1456.0625 1091.851562 1456.0625 C 1083.929688 1456.0625 1077.25 1458.878906 1071.808594 1464.511719 C 1066.371094 1470.140625 1063.648438 1476.972656 1063.648438 1485 C 1063.648438 1493.027344 1066.371094 1499.859375 1071.808594 1505.488281 C 1077.25 1511.121094 1083.929688 1513.9375 1091.851562 1513.9375 C 1099.761719 1513.9375 1106.441406 1511.121094 1111.878906 1505.488281 C 1117.320312 1499.859375 1120.039062 1493.027344 1120.039062 1485 C 1120.039062 1476.972656 1117.320312 1470.140625 1111.878906 1464.511719 Z M 1121.75 1514.449219 C 1113.691406 1522.324219 1103.71875 1526.265625 1091.851562 1526.265625 C 1079.96875 1526.265625 1070.011719 1522.324219 1061.941406 1514.449219 C 1053.871094 1506.574219 1049.839844 1496.757812 1049.839844 1485 C 1049.839844 1473.242188 1053.871094 1463.425781 1061.941406 1455.550781 C 1070.011719 1447.675781 1079.96875 1443.734375 1091.851562 1443.734375 C 1103.71875 1443.734375 1113.691406 1447.675781 1121.75 1455.550781 C 1129.820312 1463.425781 1133.851562 1473.242188 1133.851562 1485 C 1133.851562 1496.757812 1129.820312 1506.574219 1121.75 1514.449219" fill-opacity="1" fill="rgb(99.609375%, 99.609375%, 99.609375%)" fill-rule="nonzero"/>
<path d="M 1198.339844 1508.34375 L 1198.339844 1486.65625 L 1176.539062 1486.65625 L 1176.539062 1475.925781 L 1198.339844 1475.925781 L 1198.339844 1454.464844 L 1208.621094 1454.464844 L 1208.621094 1475.925781 L 1230.421875 1475.925781 L 1230.421875 1486.65625 L 1208.621094 1486.65625 L 1208.621094 1508.34375 L 1198.339844 1508.34375" fill-opacity="1" fill="rgb(99.609375%, 99.609375%, 99.609375%)" fill-rule="nonzero"/>
<path d="M 1305.640625 1445.675781 C 1319.949219 1445.675781 1330.949219 1449.15625 1338.628906 1456.121094 C 1346.320312 1463.085938 1350.160156 1472.765625 1350.160156 1485.171875 C 1350.160156 1497.574219 1346.429688 1507.390625 1338.96875 1514.621094 C 1331.519531 1521.851562 1320.101562 1525.464844 1304.730469 1525.464844 L 1278.25 1525.464844 L 1278.25 1445.675781 Z M 1336.578125 1485.515625 C 1336.578125 1467.25 1326.109375 1458.117188 1305.191406 1458.117188 L 1291.71875 1458.117188 L 1291.71875 1512.796875 L 1306.671875 1512.796875 C 1316.339844 1512.796875 1323.738281 1510.492188 1328.871094 1505.890625 C 1334.011719 1501.285156 1336.578125 1494.492188 1336.578125 1485.515625" fill-opacity="1" fill="rgb(99.609375%, 99.609375%, 99.609375%)" fill-rule="nonzero"/>
</svg>